<svg xmlns="http://www.w3.org/2000/svg" xmlns:xlink="http://www.w3.org/1999/xlink" width="1080" zoomAndPan="magnify" viewBox="0 0 810 809.999993" height="1080" preserveAspectRatio="xMidYMid meet" version="1.0"><defs><g/><clipPath id="546d08d40b"><path d="M 129.378906 361.570312 L 381.316406 361.570312 L 381.316406 466.394531 L 129.378906 466.394531 Z M 129.378906 361.570312 " clip-rule="nonzero"/></clipPath><clipPath id="830a36f72a"><path d="M 306 309 L 531 309 L 531 445 L 306 445 Z M 306 309 " clip-rule="nonzero"/></clipPath><clipPath id="92746f9f15"><path d="M 306.449219 329.367188 L 519.859375 309.980469 L 530.363281 425.597656 L 316.949219 444.984375 Z M 306.449219 329.367188 " clip-rule="nonzero"/></clipPath><clipPath id="fb034825b5"><path d="M 306.449219 329.367188 L 519.859375 309.980469 L 530.363281 425.597656 L 316.949219 444.984375 Z M 306.449219 329.367188 " clip-rule="nonzero"/></clipPath><clipPath id="070b2a4d98"><path d="M 407 304 L 504 304 L 504 417 L 407 417 Z M 407 304 " clip-rule="nonzero"/></clipPath><clipPath id="dc435a9280"><path d="M 407.539062 307.558594 L 499.839844 304.347656 L 503.621094 413.125 L 411.320312 416.335938 Z M 407.539062 307.558594 " clip-rule="nonzero"/></clipPath><clipPath id="4686d9ddaf"><path d="M 407.539062 307.558594 L 499.839844 304.347656 L 503.621094 413.125 L 411.320312 416.335938 Z M 407.539062 307.558594 " clip-rule="nonzero"/></clipPath><clipPath id="a7a304bd05"><path d="M 467 305 L 577 305 L 577 424 L 467 424 Z M 467 305 " clip-rule="nonzero"/></clipPath><clipPath id="74638c6cb6"><path d="M 485.167969 305.265625 L 576.210938 320.792969 L 558.652344 423.75 L 467.609375 408.222656 Z M 485.167969 305.265625 " clip-rule="nonzero"/></clipPath><clipPath id="05af6c2483"><path d="M 485.167969 305.265625 L 576.210938 320.792969 L 558.652344 423.75 L 467.609375 408.222656 Z M 485.167969 305.265625 " clip-rule="nonzero"/></clipPath><clipPath id="95ae3d6cad"><path d="M 130.011719 301.683594 L 680.011719 301.683594 L 680.011719 401.546875 L 130.011719 401.546875 Z M 130.011719 301.683594 " clip-rule="nonzero"/></clipPath><clipPath id="7355ea67c6"><path d="M 353 360 L 510 360 L 510 414.933594 L 353 414.933594 Z M 353 360 " clip-rule="nonzero"/></clipPath><clipPath id="dc76453bd0"><path d="M 129.378906 403.492188 L 680.621094 403.492188 L 680.621094 508.316406 L 129.378906 508.316406 Z M 129.378906 403.492188 " clip-rule="nonzero"/></clipPath></defs><g clip-path="url(#546d08d40b)"><path fill="#ffffff" d="M 129.378906 361.570312 L 381.316406 361.570312 L 381.316406 466.394531 L 129.378906 466.394531 Z M 129.378906 361.570312 " fill-opacity="1" fill-rule="nonzero"/></g><g clip-path="url(#830a36f72a)"><g clip-path="url(#92746f9f15)"><g clip-path="url(#fb034825b5)"><path fill="#ffffff" d="M 306.449219 329.367188 L 519.859375 309.980469 L 530.363281 425.597656 L 316.949219 444.984375 Z M 306.449219 329.367188 " fill-opacity="1" fill-rule="nonzero"/></g></g></g><g clip-path="url(#070b2a4d98)"><g clip-path="url(#dc435a9280)"><g clip-path="url(#4686d9ddaf)"><path fill="#ffffff" d="M 407.539062 307.558594 L 499.839844 304.347656 L 503.621094 413.125 L 411.320312 416.335938 Z M 407.539062 307.558594 " fill-opacity="1" fill-rule="nonzero"/></g></g></g><g clip-path="url(#a7a304bd05)"><g clip-path="url(#74638c6cb6)"><g clip-path="url(#05af6c2483)"><path fill="#ffffff" d="M 485.167969 305.265625 L 576.210938 320.792969 L 558.652344 423.75 L 467.609375 408.222656 Z M 485.167969 305.265625 " fill-opacity="1" fill-rule="nonzero"/></g></g></g><path fill="#ff9c28" d="M 181.867188 379.671875 L 179.378906 379.953125 C 178.558594 380.070312 177.746094 380.21875 176.929688 380.351562 C 176.105469 380.46875 175.3125 380.671875 174.5 380.828125 C 173.691406 380.988281 172.890625 381.167969 172.097656 381.363281 C 171.296875 381.558594 170.496094 381.734375 169.703125 381.945312 L 167.328125 382.574219 C 165.757812 383.019531 164.179688 383.453125 162.617188 383.9375 C 159.488281 384.878906 156.390625 385.894531 153.304688 386.964844 C 150.222656 388.035156 147.15625 389.136719 144.113281 390.316406 C 143.941406 390.386719 143.847656 390.582031 143.910156 390.761719 C 143.972656 390.945312 144.171875 391.042969 144.359375 390.976562 C 147.429688 389.929688 150.53125 388.949219 153.644531 388.011719 C 156.753906 387.070312 159.878906 386.1875 163.023438 385.378906 C 164.589844 384.960938 166.171875 384.59375 167.742188 384.214844 L 170.113281 383.691406 C 170.902344 383.507812 171.699219 383.375 172.492188 383.214844 C 173.28125 383.050781 174.074219 382.90625 174.871094 382.78125 C 175.664062 382.664062 176.457031 382.5 177.25 382.414062 C 178.046875 382.320312 178.84375 382.207031 179.632812 382.128906 L 179.648438 382.125 C 179.503906 382.339844 179.363281 382.550781 179.222656 382.726562 C 179.058594 382.941406 178.84375 383.179688 178.628906 383.382812 C 178.195312 383.792969 177.6875 384.136719 177.140625 384.394531 C 176.867188 384.523438 176.585938 384.628906 176.289062 384.71875 L 175.269531 385.015625 L 171.183594 386.210938 L 169.140625 386.804688 C 168.457031 387.011719 167.789062 387.191406 167.089844 387.414062 C 165.660156 387.875 164.328125 388.507812 163.082031 389.296875 C 161.835938 390.085938 160.699219 391.035156 159.699219 392.105469 C 159.195312 392.648438 158.75 393.171875 158.277344 393.707031 L 156.863281 395.300781 L 154.050781 398.488281 C 153.925781 398.628906 153.929688 398.84375 154.066406 398.972656 C 154.207031 399.109375 154.429688 399.105469 154.5625 398.964844 L 157.527344 395.914062 L 159.007812 394.386719 C 159.5 393.882812 160 393.351562 160.484375 392.875 C 161.46875 391.917969 162.566406 391.082031 163.75 390.40625 C 164.929688 389.730469 166.207031 389.203125 167.5 388.851562 C 168.160156 388.671875 168.871094 388.515625 169.550781 388.34375 L 171.621094 387.84375 L 175.753906 386.84375 L 176.789062 386.59375 C 177.175781 386.5 177.570312 386.371094 177.945312 386.21875 C 178.695312 385.902344 179.398438 385.472656 180.019531 384.9375 C 180.335938 384.667969 180.613281 384.390625 180.894531 384.058594 C 181.050781 383.875 181.117188 383.792969 181.257812 383.601562 L 181.578125 383.179688 L 182.867188 381.484375 L 182.886719 381.457031 C 183.050781 381.234375 183.136719 380.953125 183.101562 380.65625 C 183.035156 380.042969 182.480469 379.601562 181.867188 379.671875 " fill-opacity="1" fill-rule="nonzero"/><g clip-path="url(#95ae3d6cad)"><path fill="#000000" d="M 680.011719 342.878906 L 676.777344 351.300781 C 671.757812 349.375 666.339844 347.984375 660.839844 346.90625 C 655.324219 345.820312 649.703125 345.050781 644.054688 344.457031 C 632.738281 343.300781 621.28125 342.863281 609.820312 342.898438 C 598.363281 342.921875 586.882812 343.460938 575.460938 344.453125 C 564.050781 345.464844 552.632812 346.875 541.53125 349.152344 C 540.152344 349.453125 538.800781 349.714844 537.382812 350.066406 L 535.269531 350.5625 L 533.097656 351.058594 C 531.625 351.40625 530.160156 351.652344 528.691406 351.917969 C 527.222656 352.210938 525.765625 352.398438 524.300781 352.621094 C 518.464844 353.46875 512.648438 354.0625 506.828125 354.539062 C 495.203125 355.480469 483.589844 356.003906 471.984375 356.367188 C 448.78125 357.0625 425.597656 357.097656 402.425781 356.886719 C 390.84375 356.78125 379.257812 356.59375 367.671875 356.347656 C 356.09375 356.078125 344.515625 355.863281 332.9375 355.539062 C 321.359375 355.253906 309.785156 354.957031 298.207031 354.605469 C 292.425781 354.449219 286.605469 354.203125 280.867188 354.082031 C 278.007812 354.035156 275.140625 353.910156 272.28125 353.976562 C 269.417969 354.011719 266.550781 354 263.691406 354.148438 C 252.253906 354.574219 240.828125 355.628906 229.519531 357.457031 C 218.210938 359.261719 207.039062 361.902344 196.058594 365.15625 C 190.578125 366.835938 185.140625 368.640625 179.78125 370.65625 C 174.425781 372.6875 169.128906 374.878906 163.929688 377.261719 C 158.71875 379.632812 153.589844 382.191406 148.585938 384.953125 C 146.082031 386.328125 143.613281 387.769531 141.1875 389.265625 C 139.976562 390.011719 138.765625 390.769531 137.585938 391.550781 C 136.816406 392.046875 136.054688 392.570312 135.316406 393.085938 L 136.210938 397.492188 C 136.515625 398.996094 135.578125 400.472656 134.089844 400.835938 L 132.863281 401.140625 L 130.414062 392.609375 L 130.011719 391.199219 L 131.277344 390.179688 C 132.527344 389.246094 133.707031 388.417969 134.945312 387.585938 C 136.160156 386.765625 137.394531 385.964844 138.632812 385.175781 C 141.121094 383.613281 143.632812 382.101562 146.183594 380.660156 C 151.277344 377.773438 156.476562 375.082031 161.773438 372.609375 C 167.078125 370.144531 172.464844 367.867188 177.925781 365.769531 C 183.382812 363.671875 188.917969 361.796875 194.496094 360.046875 C 205.691406 356.65625 217.078125 353.894531 228.613281 351.984375 C 240.148438 350.066406 251.804688 348.835938 263.492188 348.457031 C 266.417969 348.308594 269.339844 348.328125 272.261719 348.296875 C 275.183594 348.230469 278.105469 348.363281 281.03125 348.414062 C 283.964844 348.460938 286.832031 348.617188 289.726562 348.730469 L 298.394531 349.066406 C 309.953125 349.507812 321.515625 349.898438 333.070312 350.210938 C 344.636719 350.480469 356.199219 350.761719 367.761719 350.867188 C 379.328125 350.992188 390.890625 351.0625 402.449219 351.058594 C 425.570312 351.035156 448.6875 350.761719 471.75 349.832031 C 483.28125 349.355469 494.796875 348.714844 506.234375 347.683594 C 511.945312 347.148438 517.632812 346.507812 523.242188 345.640625 C 524.640625 345.410156 526.050781 345.210938 527.421875 344.929688 C 527.425781 344.929688 527.425781 344.929688 527.433594 344.929688 C 528.171875 344.773438 528.882812 344.523438 529.542969 344.160156 C 534.082031 341.644531 539.582031 336.65625 541.105469 333.191406 L 545.257812 323.761719 C 546.25 321.4375 545.167969 318.699219 542.839844 317.664062 L 541.644531 317.132812 C 538.3125 315.65625 534.816406 314.59375 531.226562 313.96875 C 526.175781 313.007812 521.054688 312.269531 515.925781 311.433594 C 510.792969 310.554688 505.644531 309.9375 500.484375 309.234375 C 495.359375 308.476562 490.117188 308.011719 484.941406 307.457031 C 483.640625 307.324219 482.347656 307.191406 481.046875 307.046875 L 480.078125 306.949219 L 479.160156 306.890625 L 477.238281 306.761719 C 475.960938 306.675781 474.6875 306.589844 473.417969 306.515625 C 472.140625 306.429688 470.867188 306.4375 469.597656 306.398438 C 459.429688 306.113281 449.398438 306.746094 439.792969 308.09375 C 438.59375 308.238281 437.398438 308.445312 436.21875 308.644531 C 435.03125 308.847656 433.851562 309.046875 432.679688 309.242188 C 430.332031 309.664062 428.027344 310.167969 425.734375 310.625 C 423.460938 311.171875 421.207031 311.679688 419 312.246094 C 416.800781 312.867188 414.609375 313.398438 412.480469 314.058594 C 403.945312 316.589844 396.046875 319.554688 388.910156 322.644531 C 374.625 328.835938 363.464844 335.558594 355.933594 340.597656 C 352.167969 343.125 349.300781 345.238281 347.390625 346.707031 C 346.433594 347.445312 345.710938 348.019531 345.234375 348.414062 L 345.21875 348.425781 C 344.765625 348.796875 344.191406 348.992188 343.601562 348.96875 L 340.222656 348.84375 C 339.777344 348.828125 339.578125 348.277344 339.914062 347.988281 C 340.941406 347.09375 342.484375 345.753906 342.816406 345.476562 C 343.316406 345.0625 344.058594 344.453125 345.042969 343.6875 C 347.007812 342.152344 349.925781 339.96875 353.757812 337.371094 C 361.402344 332.179688 372.730469 325.257812 387.25 318.859375 C 394.5 315.65625 402.546875 312.585938 411.25 309.941406 C 413.414062 309.253906 415.65625 308.695312 417.894531 308.046875 C 420.152344 307.449219 422.457031 306.914062 424.773438 306.347656 C 427.113281 305.863281 429.476562 305.335938 431.871094 304.878906 C 433.070312 304.675781 434.28125 304.464844 435.488281 304.253906 C 436.703125 304.035156 437.917969 303.816406 439.15625 303.664062 C 448.984375 302.214844 459.261719 301.507812 469.707031 301.722656 C 471.007812 301.757812 472.320312 301.738281 473.628906 301.816406 C 474.933594 301.898438 476.25 301.976562 477.558594 302.054688 L 479.53125 302.167969 L 480.554688 302.230469 L 481.523438 302.328125 C 482.816406 302.453125 484.117188 302.582031 485.410156 302.707031 C 490.601562 303.226562 495.808594 303.65625 501.042969 304.386719 C 506.265625 305.066406 511.515625 305.671875 516.675781 306.515625 C 521.84375 307.324219 527.015625 308.03125 532.09375 308.96875 C 542.292969 310.6875 552.285156 312.605469 561.929688 314.558594 C 566.742188 315.570312 571.492188 316.519531 576.113281 317.546875 C 580.738281 318.570312 585.253906 319.582031 589.65625 320.566406 C 594.050781 321.601562 598.3125 322.59375 602.445312 323.574219 C 606.570312 324.585938 610.546875 325.558594 614.367188 326.496094 C 620.121094 327.941406 625.503906 329.328125 630.441406 330.617188 C 626.675781 330.5625 622.65625 330.542969 618.484375 330.570312 C 614.84375 330.589844 611.085938 330.667969 607.261719 330.78125 C 605.355469 330.851562 603.429688 330.921875 601.496094 330.992188 C 599.5625 331.089844 597.625 331.195312 595.6875 331.292969 C 591.816406 331.527344 587.9375 331.796875 584.128906 332.15625 C 583.183594 332.246094 582.234375 332.332031 581.292969 332.425781 C 580.347656 332.523438 579.410156 332.628906 578.480469 332.726562 C 576.613281 332.914062 574.78125 333.15625 572.972656 333.394531 C 569.363281 333.855469 565.878906 334.40625 562.589844 334.988281 C 559.300781 335.578125 556.203125 336.210938 553.367188 336.886719 C 551.945312 337.195312 550.589844 337.558594 549.304688 337.902344 C 548.667969 338.074219 548.039062 338.242188 547.429688 338.402344 C 546.828125 338.570312 546.242188 338.761719 545.671875 338.929688 C 544.542969 339.28125 543.476562 339.582031 542.496094 339.914062 C 541.53125 340.257812 540.644531 340.566406 539.835938 340.847656 C 539.433594 340.996094 539.054688 341.128906 538.695312 341.257812 C 538.34375 341.394531 538.015625 341.53125 537.714844 341.65625 C 537.09375 341.90625 536.578125 342.121094 536.152344 342.289062 C 535.3125 342.632812 534.863281 342.816406 534.863281 342.816406 C 534.570312 342.933594 534.433594 343.25 534.539062 343.546875 C 534.644531 343.839844 534.976562 343.988281 535.269531 343.882812 L 535.296875 343.867188 C 535.296875 343.867188 535.753906 343.707031 536.597656 343.398438 C 537.019531 343.246094 537.535156 343.046875 538.148438 342.820312 C 538.457031 342.707031 538.78125 342.589844 539.132812 342.464844 C 539.492188 342.351562 539.871094 342.230469 540.273438 342.105469 C 541.070312 341.855469 541.957031 341.570312 542.925781 341.269531 C 543.894531 340.972656 544.957031 340.714844 546.085938 340.40625 C 546.65625 340.257812 547.230469 340.089844 547.839844 339.949219 C 548.441406 339.808594 549.066406 339.667969 549.707031 339.519531 C 550.992188 339.226562 552.335938 338.90625 553.753906 338.65625 C 556.578125 338.078125 559.660156 337.558594 562.929688 337.089844 C 566.199219 336.625 569.664062 336.203125 573.253906 335.867188 C 575.046875 335.691406 576.871094 335.523438 578.726562 335.398438 C 579.65625 335.324219 580.582031 335.253906 581.523438 335.1875 C 582.457031 335.128906 583.402344 335.078125 584.347656 335.023438 C 588.128906 334.800781 591.976562 334.65625 595.828125 334.558594 C 597.75 334.523438 599.675781 334.492188 601.589844 334.460938 C 603.503906 334.453125 605.417969 334.449219 607.3125 334.449219 C 611.109375 334.46875 614.839844 334.519531 618.441406 334.625 C 625.664062 334.820312 632.394531 335.152344 638.15625 335.53125 C 643.925781 335.902344 648.714844 336.296875 652.058594 336.605469 C 652.265625 336.625 652.464844 336.640625 652.664062 336.660156 L 652.671875 336.660156 C 653 336.753906 653.324219 336.84375 653.636719 336.933594 C 656.582031 337.3125 659.519531 337.757812 662.464844 338.292969 C 668.328125 339.363281 674.195312 340.75 680.011719 342.878906 " fill-opacity="1" fill-rule="nonzero"/></g><path fill="#000000" d="M 366.382812 347.214844 L 377.507812 347.214844 C 378.285156 347.214844 379.046875 346.945312 379.652344 346.457031 L 380.460938 345.804688 C 380.804688 345.527344 381.242188 345.371094 381.6875 345.371094 L 385.273438 345.371094 C 385.636719 345.371094 385.984375 345.214844 386.222656 344.9375 C 386.453125 344.671875 386.558594 344.320312 386.507812 343.976562 C 385.753906 338.664062 379.273438 338.523438 379.203125 338.519531 C 369.777344 338.519531 361.828125 346.097656 361.746094 346.171875 L 361.746094 346.175781 C 361.617188 346.300781 361.578125 346.480469 361.644531 346.632812 C 361.734375 346.851562 361.882812 347.214844 366.382812 347.214844 " fill-opacity="1" fill-rule="nonzero"/><path fill="#000000" d="M 495.058594 346.535156 L 496.863281 346.421875 C 497.265625 346.390625 497.601562 346.109375 497.707031 345.71875 L 506.398438 313.066406 C 506.425781 312.972656 506.410156 312.875 506.359375 312.792969 C 506.3125 312.710938 506.230469 312.65625 506.136719 312.632812 L 505.847656 312.570312 C 505.363281 312.453125 504.867188 312.746094 504.726562 313.222656 L 494.699219 346.082031 C 494.664062 346.191406 494.6875 346.3125 494.757812 346.402344 C 494.828125 346.488281 494.929688 346.535156 495.035156 346.535156 C 495.042969 346.535156 495.050781 346.535156 495.058594 346.535156 " fill-opacity="1" fill-rule="nonzero"/><path fill="#000000" d="M 274.65625 390.683594 C 265.503906 376.4375 249.535156 367.9375 231.9375 367.9375 C 214.335938 367.9375 198.367188 376.4375 189.214844 390.683594 C 188.984375 391.042969 189.066406 391.5 189.402344 391.738281 C 189.734375 391.976562 190.15625 391.921875 190.414062 391.605469 C 200.195312 379.527344 216.097656 372.035156 231.9375 372.035156 C 247.769531 372.035156 263.675781 379.527344 273.457031 391.605469 C 273.601562 391.789062 273.816406 391.886719 274.03125 391.886719 C 274.179688 391.886719 274.332031 391.835938 274.46875 391.738281 C 274.804688 391.5 274.886719 391.042969 274.65625 390.683594 " fill-opacity="1" fill-rule="nonzero"/><path fill="#000000" d="M 576.046875 357.792969 C 558.453125 357.792969 542.480469 366.296875 533.324219 380.542969 C 533.09375 380.898438 533.179688 381.351562 533.515625 381.597656 C 533.847656 381.835938 534.273438 381.777344 534.527344 381.457031 C 544.304688 369.382812 560.214844 361.886719 576.046875 361.886719 C 591.882812 361.886719 607.792969 369.382812 617.566406 381.457031 C 617.71875 381.644531 617.929688 381.742188 618.140625 381.742188 C 618.289062 381.742188 618.441406 381.695312 618.578125 381.597656 C 618.917969 381.351562 619 380.898438 618.773438 380.542969 C 609.617188 366.296875 593.644531 357.792969 576.046875 357.792969 " fill-opacity="1" fill-rule="nonzero"/><g clip-path="url(#7355ea67c6)"><path fill="#000000" d="M 508.253906 361.996094 C 508.007812 361.371094 507.769531 360.910156 507.609375 360.601562 C 507.441406 360.296875 507.355469 360.136719 507.355469 360.136719 C 507.320312 360.070312 507.238281 360.039062 507.164062 360.0625 C 507.082031 360.089844 507.039062 360.183594 507.066406 360.265625 L 507.066406 360.273438 C 507.066406 360.273438 507.125 360.441406 507.230469 360.761719 C 507.328125 361.085938 507.484375 361.566406 507.652344 362.203125 C 507.980469 363.46875 508.375 365.367188 508.429688 367.757812 C 508.410156 370.136719 508 373.027344 505.847656 375.574219 C 503.777344 378.25 501.230469 381.210938 498.441406 384.398438 C 495.613281 387.542969 492.699219 391.1875 489.070312 394.207031 C 487.269531 395.777344 485.25 397.199219 483.140625 398.570312 C 482.0625 399.21875 480.992188 399.902344 479.847656 400.492188 C 478.726562 401.128906 477.550781 401.683594 476.367188 402.25 C 473.984375 403.335938 471.507812 404.335938 468.921875 405.132812 C 466.355469 405.976562 463.691406 406.613281 460.984375 407.144531 C 459.621094 407.382812 458.257812 407.632812 456.875 407.789062 C 455.5 407.996094 454.109375 408.085938 452.714844 408.207031 C 449.902344 408.386719 447.078125 408.566406 444.253906 408.746094 C 399.03125 411.484375 353.8125 414.222656 353.8125 414.222656 C 353.683594 414.230469 353.585938 414.339844 353.59375 414.46875 C 353.601562 414.597656 353.710938 414.695312 353.839844 414.6875 C 353.839844 414.6875 399.078125 412.292969 444.316406 409.890625 C 447.144531 409.746094 449.976562 409.597656 452.792969 409.449219 C 454.210938 409.34375 455.628906 409.269531 457.035156 409.074219 C 458.445312 408.9375 459.835938 408.703125 461.222656 408.472656 C 463.992188 407.96875 466.722656 407.355469 469.359375 406.527344 C 472.007812 405.75 474.558594 404.757812 477.019531 403.675781 C 481.921875 401.472656 486.394531 398.71875 490.179688 395.523438 C 491.148438 394.757812 492.039062 393.902344 492.925781 393.070312 C 493.8125 392.230469 494.550781 391.40625 495.375 390.527344 C 496.890625 388.804688 498.355469 387.144531 499.757812 385.550781 C 502.546875 382.328125 505.101562 379.398438 507.207031 376.582031 C 507.480469 376.207031 507.714844 375.890625 507.957031 375.503906 C 508.183594 375.109375 508.402344 374.722656 508.617188 374.34375 C 508.796875 373.949219 508.941406 373.546875 509.09375 373.160156 C 509.246094 372.769531 509.316406 372.367188 509.425781 371.984375 C 509.78125 370.429688 509.796875 368.972656 509.703125 367.695312 C 509.449219 365.128906 508.765625 363.238281 508.253906 361.996094 " fill-opacity="1" fill-rule="nonzero"/></g><path fill="#000000" d="M 320.117188 369.15625 C 320.117188 369.15625 319.488281 369.148438 318.390625 369.132812 C 317.296875 369.125 315.726562 369.078125 313.84375 369.09375 C 312.902344 369.097656 311.882812 369.097656 310.804688 369.105469 C 309.726562 369.121094 308.589844 369.140625 307.410156 369.164062 C 306.238281 369.183594 305.019531 369.238281 303.78125 369.277344 C 302.546875 369.308594 301.292969 369.390625 300.039062 369.445312 C 297.527344 369.578125 295.019531 369.757812 292.664062 369.964844 C 290.316406 370.175781 288.121094 370.414062 286.246094 370.65625 C 284.367188 370.902344 282.804688 371.132812 281.707031 371.324219 C 281.15625 371.421875 280.722656 371.5 280.421875 371.554688 C 280.128906 371.613281 279.96875 371.644531 279.96875 371.644531 C 279.953125 371.648438 279.933594 371.652344 279.917969 371.65625 C 279.257812 371.816406 278.851562 372.484375 279.011719 373.144531 C 279.175781 373.808594 279.839844 374.214844 280.503906 374.050781 L 280.523438 374.046875 C 280.523438 374.046875 280.671875 374.011719 280.949219 373.941406 C 281.226562 373.878906 281.636719 373.789062 282.160156 373.667969 C 283.214844 373.4375 284.734375 373.144531 286.574219 372.820312 C 288.40625 372.503906 290.5625 372.171875 292.878906 371.859375 C 295.195312 371.550781 297.671875 371.265625 300.15625 371.023438 C 301.402344 370.914062 302.644531 370.78125 303.867188 370.691406 C 305.09375 370.601562 306.300781 370.496094 307.46875 370.421875 C 308.640625 370.347656 309.769531 370.28125 310.839844 370.210938 C 311.914062 370.164062 312.929688 370.113281 313.867188 370.070312 C 315.738281 369.972656 317.304688 369.949219 318.394531 369.914062 C 319.488281 369.878906 320.117188 369.859375 320.117188 369.859375 L 320.125 369.859375 C 320.308594 369.851562 320.460938 369.703125 320.460938 369.511719 C 320.464844 369.320312 320.3125 369.160156 320.117188 369.15625 " fill-opacity="1" fill-rule="nonzero"/><path fill="#000000" d="M 315.710938 373.574219 C 315.710938 373.574219 315.207031 373.570312 314.324219 373.558594 C 313.441406 373.550781 312.183594 373.507812 310.667969 373.523438 C 309.15625 373.527344 307.390625 373.535156 305.496094 373.59375 C 304.546875 373.609375 303.566406 373.65625 302.574219 373.699219 C 301.582031 373.738281 300.570312 373.796875 299.5625 373.867188 C 298.550781 373.921875 297.542969 374.007812 296.546875 374.09375 C 295.550781 374.171875 294.578125 374.285156 293.628906 374.382812 C 291.742188 374.601562 289.976562 374.839844 288.46875 375.105469 C 286.960938 375.359375 285.707031 375.621094 284.824219 375.839844 C 284.382812 375.941406 284.042969 376.035156 283.792969 376.105469 C 283.550781 376.175781 283.425781 376.214844 283.425781 376.214844 C 283.410156 376.21875 283.390625 376.226562 283.378906 376.226562 C 282.824219 376.417969 282.535156 377.019531 282.722656 377.570312 C 282.914062 378.121094 283.515625 378.414062 284.066406 378.222656 L 284.097656 378.210938 C 284.097656 378.210938 284.207031 378.171875 284.414062 378.101562 C 284.621094 378.035156 284.941406 377.925781 285.351562 377.8125 C 286.171875 377.570312 287.371094 377.257812 288.828125 376.941406 C 290.285156 376.613281 292 376.300781 293.851562 375.996094 C 294.777344 375.863281 295.734375 375.699219 296.710938 375.578125 C 297.691406 375.449219 298.683594 375.316406 299.679688 375.214844 C 300.675781 375.097656 301.671875 374.992188 302.65625 374.910156 C 303.640625 374.820312 304.609375 374.730469 305.550781 374.671875 C 307.425781 374.523438 309.183594 374.433594 310.6875 374.359375 C 312.191406 374.273438 313.449219 374.257812 314.332031 374.222656 C 315.210938 374.191406 315.710938 374.175781 315.710938 374.175781 L 315.71875 374.175781 C 315.878906 374.171875 316.007812 374.042969 316.007812 373.878906 C 316.011719 373.714844 315.878906 373.578125 315.710938 373.574219 " fill-opacity="1" fill-rule="nonzero"/><path fill="#000000" d="M 314.042969 377.992188 C 314.042969 377.992188 313.621094 377.988281 312.878906 377.980469 C 312.132812 377.976562 311.074219 377.941406 309.800781 377.953125 C 309.164062 377.960938 308.472656 377.964844 307.742188 377.972656 C 307.011719 377.972656 306.242188 378.011719 305.445312 378.03125 C 304.648438 378.054688 303.824219 378.085938 302.988281 378.136719 C 302.152344 378.183594 301.300781 378.226562 300.453125 378.300781 C 298.753906 378.429688 297.054688 378.605469 295.464844 378.824219 C 293.875 379.035156 292.394531 379.296875 291.128906 379.566406 C 289.867188 379.832031 288.820312 380.125 288.082031 380.359375 C 287.710938 380.46875 287.425781 380.578125 287.21875 380.65625 C 287.015625 380.738281 286.902344 380.785156 286.902344 380.785156 C 286.890625 380.789062 286.878906 380.792969 286.867188 380.800781 C 286.425781 381 286.234375 381.523438 286.4375 381.964844 C 286.640625 382.40625 287.160156 382.597656 287.601562 382.394531 L 287.640625 382.378906 C 287.640625 382.378906 287.726562 382.339844 287.886719 382.265625 C 288.046875 382.195312 288.300781 382.085938 288.636719 381.96875 C 289.304688 381.722656 290.285156 381.398438 291.496094 381.085938 C 292.703125 380.769531 294.132812 380.445312 295.679688 380.167969 C 297.230469 379.878906 298.894531 379.632812 300.566406 379.425781 C 301.402344 379.3125 302.242188 379.230469 303.066406 379.144531 C 303.890625 379.054688 304.707031 378.988281 305.496094 378.929688 C 306.285156 378.871094 307.046875 378.792969 307.773438 378.765625 C 308.5 378.722656 309.183594 378.6875 309.816406 378.652344 C 311.085938 378.578125 312.140625 378.5625 312.882812 378.53125 C 313.621094 378.507812 314.042969 378.496094 314.042969 378.496094 L 314.046875 378.496094 C 314.183594 378.488281 314.289062 378.382812 314.292969 378.246094 C 314.292969 378.109375 314.183594 377.992188 314.042969 377.992188 " fill-opacity="1" fill-rule="nonzero"/><path fill="#ff9c28" d="M 673.136719 352.34375 C 670.757812 352.496094 668.382812 352.757812 666.027344 353.121094 C 664.851562 353.308594 663.675781 353.527344 662.519531 353.792969 C 661.367188 354.058594 660.222656 354.386719 659.128906 354.8125 C 658.585938 355.039062 658.050781 355.28125 657.566406 355.585938 C 657.085938 355.890625 656.640625 356.261719 656.382812 356.714844 C 656.269531 356.941406 656.132812 357.246094 656.023438 357.507812 C 655.933594 357.777344 655.832031 358.039062 655.757812 358.320312 C 655.601562 358.878906 655.484375 359.453125 655.394531 360.035156 C 655.222656 361.195312 655.167969 362.378906 655.179688 363.5625 C 655.1875 364.742188 655.257812 365.933594 655.402344 367.09375 L 655.402344 367.097656 L 654.765625 366.945312 C 655.074219 366.59375 655.328125 366.464844 655.621094 366.277344 C 655.902344 366.117188 656.195312 365.96875 656.492188 365.84375 C 657.078125 365.582031 657.683594 365.375 658.289062 365.183594 C 658.898438 365 659.507812 364.835938 660.121094 364.695312 C 660.738281 364.546875 661.351562 364.425781 661.972656 364.304688 C 663.210938 364.078125 664.449219 363.886719 665.699219 363.734375 C 666.320312 363.664062 666.941406 363.574219 667.570312 363.519531 L 669.441406 363.34375 C 669.535156 363.332031 669.621094 363.402344 669.628906 363.5 C 669.640625 363.589844 669.570312 363.675781 669.476562 363.6875 L 667.613281 363.910156 C 666.992188 363.980469 666.375 364.082031 665.757812 364.167969 C 664.523438 364.347656 663.296875 364.566406 662.074219 364.820312 C 661.464844 364.953125 660.859375 365.089844 660.257812 365.246094 C 659.65625 365.402344 659.0625 365.574219 658.476562 365.769531 C 657.894531 365.96875 657.3125 366.179688 656.765625 366.441406 C 656.488281 366.570312 656.222656 366.710938 655.96875 366.859375 C 655.734375 367.003906 655.449219 367.21875 655.34375 367.34375 L 655.320312 367.375 C 655.191406 367.519531 654.976562 367.539062 654.828125 367.414062 C 654.757812 367.355469 654.71875 367.273438 654.707031 367.191406 L 654.707031 367.1875 C 654.570312 365.972656 654.511719 364.773438 654.515625 363.5625 C 654.519531 362.355469 654.59375 361.144531 654.78125 359.9375 C 654.878906 359.339844 655.011719 358.742188 655.179688 358.152344 C 655.265625 357.855469 655.386719 357.558594 655.484375 357.261719 C 655.613281 356.976562 655.722656 356.734375 655.878906 356.429688 C 656.226562 355.839844 656.746094 355.441406 657.269531 355.109375 C 657.804688 354.789062 658.367188 354.539062 658.929688 354.3125 C 660.070312 353.882812 661.238281 353.566406 662.414062 353.308594 C 663.589844 353.050781 664.769531 352.847656 665.960938 352.671875 C 668.332031 352.328125 670.71875 352.097656 673.117188 351.972656 C 673.21875 351.964844 673.308594 352.046875 673.316406 352.148438 C 673.320312 352.246094 673.238281 352.335938 673.136719 352.34375 " fill-opacity="1" fill-rule="nonzero"/><path fill="#ff9c28" d="M 675.222656 351.660156 C 675.222656 351.660156 675.023438 351.644531 674.652344 351.632812 C 674.289062 351.613281 673.738281 351.589844 673.050781 351.582031 C 671.667969 351.566406 669.699219 351.605469 667.324219 351.800781 C 664.957031 352.015625 662.195312 352.355469 659.246094 353.289062 C 658.507812 353.542969 657.761719 353.84375 657.011719 354.253906 C 656.273438 354.667969 655.472656 355.164062 654.867188 356.136719 C 654.722656 356.386719 654.585938 356.640625 654.519531 356.949219 C 654.480469 357.109375 654.429688 357.210938 654.417969 357.425781 L 654.390625 357.71875 L 654.277344 358.882812 C 654.199219 359.65625 654.128906 360.433594 654.054688 361.214844 C 653.90625 362.769531 653.765625 364.328125 653.636719 365.867188 C 653.609375 366.246094 653.578125 366.628906 653.546875 367.011719 L 653.53125 367.164062 L 653.53125 367.199219 C 653.53125 367.21875 653.539062 367.355469 653.554688 367.429688 C 653.605469 367.722656 653.722656 367.929688 653.898438 368.121094 C 654.234375 368.472656 654.75 368.617188 655.246094 368.464844 C 655.375 368.429688 655.484375 368.371094 655.585938 368.304688 C 655.640625 368.265625 655.683594 368.230469 655.722656 368.199219 L 655.800781 368.125 L 655.902344 368.019531 L 656.097656 367.816406 C 656.359375 367.550781 656.617188 367.277344 656.875 367.011719 L 657.039062 366.847656 C 657.066406 366.820312 657.128906 366.761719 657.171875 366.730469 C 657.273438 366.652344 657.378906 366.582031 657.488281 366.519531 C 657.722656 366.398438 657.910156 366.328125 658.226562 366.273438 C 658.578125 366.203125 658.929688 366.140625 659.28125 366.074219 C 659.96875 365.941406 660.648438 365.816406 661.3125 365.691406 C 662.628906 365.429688 663.882812 365.175781 665.023438 364.953125 C 667.332031 364.480469 669.25 364.074219 670.582031 363.769531 C 671.925781 363.472656 672.6875 363.292969 672.6875 363.292969 C 672.859375 363.253906 672.972656 363.097656 672.957031 362.914062 C 672.9375 362.722656 672.769531 362.578125 672.574219 362.597656 C 672.574219 362.597656 671.792969 362.675781 670.429688 362.808594 C 669.066406 362.941406 667.121094 363.160156 664.789062 363.441406 C 663.621094 363.589844 662.359375 363.742188 661.023438 363.914062 C 660.355469 364.003906 659.675781 364.09375 658.972656 364.195312 C 658.628906 364.234375 658.269531 364.285156 657.910156 364.332031 C 657.515625 364.375 656.996094 364.515625 656.578125 364.71875 C 656.359375 364.824219 656.148438 364.953125 655.949219 365.09375 C 655.933594 365.101562 655.929688 365.105469 655.914062 365.121094 C 656.054688 363.898438 656.195312 362.675781 656.324219 361.4375 C 656.40625 360.660156 656.484375 359.878906 656.570312 359.109375 L 656.6875 357.949219 L 656.722656 357.660156 C 656.722656 357.660156 656.75 357.597656 656.75 357.574219 C 656.757812 357.5 656.8125 357.414062 656.863281 357.328125 C 657.054688 356.972656 657.558594 356.566406 658.125 356.246094 C 658.703125 355.929688 659.335938 355.660156 659.988281 355.425781 C 661.285156 354.949219 662.625 354.597656 663.902344 354.308594 C 665.1875 354.007812 666.417969 353.773438 667.5625 353.570312 C 669.84375 353.15625 671.773438 352.875 673.128906 352.671875 C 674.476562 352.472656 675.25 352.363281 675.25 352.363281 L 675.253906 352.363281 C 675.417969 352.335938 675.542969 352.203125 675.558594 352.023438 C 675.566406 351.835938 675.417969 351.667969 675.222656 351.660156 " fill-opacity="1" fill-rule="nonzero"/><g clip-path="url(#dc76453bd0)"><path fill="#ffffff" d="M 129.378906 403.492188 L 680.621094 403.492188 L 680.621094 508.316406 L 129.378906 508.316406 Z M 129.378906 403.492188 " fill-opacity="1" fill-rule="nonzero"/></g><g fill="#000000" fill-opacity="1"><g transform="translate(130.581258, 452.96937)"><g><path d="M 18.273438 0 C 26.554688 0 30.699219 -2.277344 31.679688 -9.316406 C 32.355469 -14.183594 30.285156 -16.460938 25.210938 -17.1875 C 29.765625 -17.964844 32.148438 -20.242188 32.820312 -24.898438 C 33.804688 -31.785156 30.59375 -34.167969 23.035156 -34.167969 L 8.75 -34.167969 L 3.984375 0 Z M 11.804688 -5.953125 L 12.941406 -14.234375 L 19.929688 -14.234375 C 24.175781 -14.234375 25.160156 -12.839844 24.746094 -9.9375 C 24.382812 -7.246094 23.296875 -5.953125 18.792969 -5.953125 Z M 13.769531 -20.136719 L 14.910156 -28.214844 L 21.898438 -28.214844 C 25.625 -28.214844 26.140625 -27.023438 25.78125 -24.640625 C 25.3125 -21.222656 23.8125 -20.136719 20.757812 -20.136719 Z M 13.769531 -20.136719 "/></g></g></g><g fill="#000000" fill-opacity="1"><g transform="translate(184.933286, 452.96937)"><g><path d="M 27.28125 0 L 28.109375 -5.953125 L 11.804688 -5.953125 L 12.941406 -14.234375 L 27.175781 -14.234375 L 28.007812 -20.136719 L 13.769531 -20.136719 L 14.910156 -28.214844 L 31.214844 -28.214844 L 32.042969 -34.167969 L 8.75 -34.167969 L 3.984375 0 Z M 27.28125 0 "/></g></g></g><g fill="#000000" fill-opacity="1"><g transform="translate(236.438577, 452.96937)"><g><path d="M 32.40625 -24.332031 C 33.441406 -31.886719 30.179688 -34.683594 20.601562 -34.683594 C 9.730469 -34.683594 6.472656 -31.058594 5.589844 -25.003906 C 4.398438 -16.359375 9.785156 -15.0625 17.496094 -13.875 C 20.863281 -13.355469 24.539062 -13.5625 23.96875 -9.214844 C 23.554688 -6.367188 21.792969 -5.433594 16.410156 -5.433594 C 10.144531 -5.433594 9.371094 -6.679688 9.785156 -9.835938 L 2.847656 -9.835938 C 1.863281 -2.640625 4.8125 0.519531 15.425781 0.519531 C 25.675781 0.519531 29.972656 -2.433594 30.957031 -9.371094 C 32.199219 -18.171875 26.039062 -19.207031 18.429688 -20.292969 C 15.011719 -20.808594 12.011719 -20.707031 12.578125 -24.953125 C 12.992188 -27.746094 14.441406 -28.730469 19.621094 -28.730469 C 25.210938 -28.730469 25.882812 -27.59375 25.46875 -24.332031 Z M 32.40625 -24.332031 "/></g></g></g><g fill="#000000" fill-opacity="1"><g transform="translate(289.807189, 452.96937)"><g><path d="M 17.601562 0 L 21.535156 -28.214844 L 31.628906 -28.214844 L 32.457031 -34.167969 L 5.28125 -34.167969 L 4.453125 -28.214844 L 14.546875 -28.214844 L 10.613281 0 Z M 17.601562 0 "/></g></g></g><g fill="#ff9c28" fill-opacity="1"><g transform="translate(339.664696, 452.96937)"><g><path d="M 18.273438 0 C 26.554688 0 30.699219 -2.277344 31.679688 -9.316406 C 32.355469 -14.183594 30.285156 -16.460938 25.210938 -17.1875 C 29.765625 -17.964844 32.148438 -20.242188 32.820312 -24.898438 C 33.804688 -31.785156 30.59375 -34.167969 23.035156 -34.167969 L 8.75 -34.167969 L 3.984375 0 Z M 11.804688 -5.953125 L 12.941406 -14.234375 L 19.929688 -14.234375 C 24.175781 -14.234375 25.160156 -12.839844 24.746094 -9.9375 C 24.382812 -7.246094 23.296875 -5.953125 18.792969 -5.953125 Z M 13.769531 -20.136719 L 14.910156 -28.214844 L 21.898438 -28.214844 C 25.625 -28.214844 26.140625 -27.023438 25.78125 -24.640625 C 25.3125 -21.222656 23.8125 -20.136719 20.757812 -20.136719 Z M 13.769531 -20.136719 "/></g></g></g><g fill="#ff9c28" fill-opacity="1"><g transform="translate(394.016724, 452.96937)"><g><path d="M 27.074219 0 L 34.21875 0 L 25.367188 -34.167969 L 19 -34.167969 L 0.519531 0 L 7.660156 0 L 10.976562 -6.316406 L 25.519531 -6.316406 Z M 17.445312 -18.636719 C 19.980469 -23.503906 21.171875 -27.332031 21.171875 -27.332031 L 21.378906 -27.332031 C 21.378906 -27.332031 21.328125 -23.605469 22.519531 -18.636719 L 24.070312 -12.269531 L 14.082031 -12.269531 Z M 17.445312 -18.636719 "/></g></g></g><g fill="#ff9c28" fill-opacity="1"><g transform="translate(450.387359, 452.96937)"><g><path d="M 26.246094 0 L 27.074219 -5.953125 L 11.804688 -5.953125 L 15.738281 -34.167969 L 8.75 -34.167969 L 3.984375 0 Z M 26.246094 0 "/></g></g></g><g fill="#ff9c28" fill-opacity="1"><g transform="translate(499.71877, 452.96937)"><g><path d="M 10.976562 0 L 15.738281 -34.167969 L 8.75 -34.167969 L 3.984375 0 Z M 10.976562 0 "/></g></g></g><g fill="#ff9c28" fill-opacity="1"><g transform="translate(536.317471, 452.96937)"><g><path d="M 25.210938 -9.835938 C 24.640625 -5.746094 20.707031 -5.433594 17.859375 -5.433594 C 12.011719 -5.433594 10.042969 -6.78125 11.492188 -17.136719 C 12.941406 -27.539062 15.324219 -28.730469 21.328125 -28.730469 C 24.640625 -28.730469 27.851562 -28.367188 27.28125 -24.332031 L 34.269531 -24.332031 C 35.410156 -32.769531 29.816406 -34.683594 22.054688 -34.683594 C 11.648438 -34.683594 6.472656 -31.265625 4.503906 -17.136719 C 2.535156 -3.003906 6.679688 0.519531 16.875 0.519531 C 24.277344 0.519531 31.007812 -1.347656 32.199219 -9.835938 Z M 25.210938 -9.835938 "/></g></g></g><g fill="#ff9c28" fill-opacity="1"><g transform="translate(589.68609, 452.96937)"><g><path d="M 27.074219 0 L 34.21875 0 L 25.367188 -34.167969 L 19 -34.167969 L 0.519531 0 L 7.660156 0 L 10.976562 -6.316406 L 25.519531 -6.316406 Z M 17.445312 -18.636719 C 19.980469 -23.503906 21.171875 -27.332031 21.171875 -27.332031 L 21.378906 -27.332031 C 21.378906 -27.332031 21.328125 -23.605469 22.519531 -18.636719 L 24.070312 -12.269531 L 14.082031 -12.269531 Z M 17.445312 -18.636719 "/></g></g></g><g fill="#ff9c28" fill-opacity="1"><g transform="translate(646.056738, 452.96937)"><g><path d="M 10.976562 0 L 12.476562 -10.871094 L 18.480469 -10.871094 L 23.96875 0 L 31.941406 0 L 25.988281 -11.699219 C 30.285156 -13.148438 32.664062 -16.515625 33.546875 -22.777344 C 34.734375 -31.265625 31.371094 -34.167969 23.035156 -34.167969 L 8.75 -34.167969 L 3.984375 0 Z M 13.304688 -16.824219 L 14.910156 -28.214844 L 21.898438 -28.214844 C 25.832031 -28.214844 27.125 -26.816406 26.554688 -22.777344 C 25.933594 -18.324219 24.226562 -16.824219 20.292969 -16.824219 Z M 13.304688 -16.824219 "/></g></g></g></svg>