<svg xmlns="http://www.w3.org/2000/svg" xmlns:xlink="http://www.w3.org/1999/xlink" width="1200" zoomAndPan="magnify" viewBox="0 0 900 899.99999" height="1200" preserveAspectRatio="xMidYMid meet" version="1.0"><path fill="#38b6ff" d="M 602.03125 455.078125 L 858.515625 198.515625 C 900.46875 156.5625 900.46875 88.4375 858.515625 46.484375 C 816.5625 4.53125 748.515625 4.53125 706.5625 46.484375 L 450 303.046875 L 193.515625 46.484375 C 151.484375 4.53125 83.515625 4.53125 41.484375 46.484375 C -0.46875 88.4375 -0.46875 156.484375 41.484375 198.4375 L 297.96875 455 L 41.484375 711.5625 C -0.46875 753.515625 -0.46875 821.5625 41.484375 863.515625 C 62.5 884.453125 90 895 117.5 895 C 145 895 172.5 884.453125 193.515625 863.515625 L 450 606.953125 L 706.5625 863.515625 C 727.578125 884.453125 755.078125 895 782.578125 895 C 810.078125 895 837.578125 884.453125 858.515625 863.515625 C 900.46875 821.5625 900.46875 753.515625 858.515625 711.5625 L 602.03125 455.078125 " fill-opacity="1" fill-rule="nonzero"/></svg>