<svg xmlns="http://www.w3.org/2000/svg" xmlns:xlink="http://www.w3.org/1999/xlink" width="1200" zoomAndPan="magnify" viewBox="0 0 900 899.99999" height="1200" preserveAspectRatio="xMidYMid meet" version="1.0"><defs><clipPath id="95aad8dd83"><path d="M 0 131.0625 L 900 131.0625 L 900 244 L 0 244 Z M 0 131.0625 " clip-rule="nonzero"/></clipPath></defs><path fill="#38b6ff" d="M 843.75 393.75 L 56.25 393.75 C 25.179688 393.75 0 418.929688 0 450 C 0 481.070312 25.179688 506.25 56.25 506.25 L 843.75 506.25 C 874.820312 506.25 900 481.070312 900 450 C 900 418.929688 874.820312 393.75 843.75 393.75 Z M 843.75 393.75 " fill-opacity="1" fill-rule="nonzero"/><path fill="#38b6ff" d="M 843.75 656.25 L 56.25 656.25 C 25.179688 656.25 0 681.429688 0 712.5 C 0 743.570312 25.179688 768.75 56.25 768.75 L 843.75 768.75 C 874.820312 768.75 900 743.570312 900 712.5 C 900 681.429688 874.820312 656.25 843.75 656.25 Z M 843.75 656.25 " fill-opacity="1" fill-rule="nonzero"/><g clip-path="url(#95aad8dd83)"><path fill="#38b6ff" d="M 56.25 243.75 L 843.75 243.75 C 874.820312 243.75 900 218.570312 900 187.5 C 900 156.429688 874.820312 131.25 843.75 131.25 L 56.25 131.25 C 25.179688 131.25 0 156.429688 0 187.5 C 0 218.570312 25.179688 243.75 56.25 243.75 Z M 56.25 243.75 " fill-opacity="1" fill-rule="nonzero"/></g></svg>