<svg xmlns="http://www.w3.org/2000/svg" xmlns:xlink="http://www.w3.org/1999/xlink" width="1200" zoomAndPan="magnify" viewBox="0 0 900 899.99999" height="1200" preserveAspectRatio="xMidYMid meet" version="1.0"><defs><clipPath id="9937d9b3ca"><path d="M 18 43 L 894.777344 43 L 894.777344 872 L 18 872 Z M 18 43 " clip-rule="nonzero"/></clipPath><clipPath id="887203047b"><path d="M 5.277344 25 L 882 25 L 882 854 L 5.277344 854 Z M 5.277344 25 " clip-rule="nonzero"/></clipPath></defs><g clip-path="url(#9937d9b3ca)"><path fill="#38b6ff" d="M 780.066406 43.609375 L 133.597656 43.609375 C 70.367188 43.609375 18.945312 95.03125 18.945312 158.265625 L 18.945312 608.082031 C 18.945312 671.316406 70.367188 722.734375 133.597656 722.734375 L 328.628906 722.734375 L 437.953125 862.175781 C 447.453125 874.449219 465.980469 874.449219 475.710938 862.175781 L 585.035156 722.734375 L 780.066406 722.734375 C 843.300781 722.734375 894.71875 671.316406 894.71875 608.082031 L 894.71875 158.265625 C 894.71875 94.800781 843.300781 43.609375 780.066406 43.609375 Z M 780.066406 43.609375 " fill-opacity="1" fill-rule="nonzero"/></g><g clip-path="url(#887203047b)"><path fill="#38b6ff" d="M 766.167969 25.542969 L 119.933594 25.542969 C 56.699219 25.542969 5.277344 76.964844 5.277344 140.199219 L 5.277344 590.015625 C 5.277344 653.25 56.699219 704.667969 119.933594 704.667969 L 314.960938 704.667969 L 424.289062 844.109375 C 433.785156 856.382812 452.316406 856.382812 462.042969 844.109375 L 571.371094 704.667969 L 766.398438 704.667969 C 829.632812 704.667969 881.054688 653.25 881.054688 590.015625 L 881.054688 140.429688 C 880.824219 76.964844 829.632812 25.542969 766.167969 25.542969 Z M 766.167969 25.542969 " fill-opacity="1" fill-rule="nonzero"/></g><path fill="#ffffff" d="M 288.09375 495.742188 C 308.011719 511.957031 331.175781 526.78125 357.117188 541.835938 C 381.902344 555.964844 409.234375 570.328125 438.648438 585.382812 C 440.039062 586.078125 441.429688 586.773438 443.050781 587.699219 C 473.160156 572.179688 501.1875 557.820312 526.667969 543.226562 C 553.535156 527.9375 577.625 512.417969 597.777344 495.972656 C 619.316406 478.371094 638.542969 457.757812 652.207031 433.203125 C 664.484375 411.199219 670.738281 388.730469 672.128906 366.960938 C 673.519531 345.417969 670.042969 324.570312 662.632812 305.578125 C 655.449219 286.585938 644.332031 269.675781 630.898438 255.546875 C 607.042969 230.761719 575.308594 215.476562 541.953125 215.707031 C 508.601562 215.9375 474.089844 231.921875 444.441406 269.445312 C 443.976562 270.140625 443.515625 270.835938 443.050781 271.296875 C 413.402344 232.617188 378.425781 216.171875 344.839844 215.707031 C 311.253906 215.246094 279.058594 230.53125 254.972656 255.546875 C 241.535156 269.675781 230.417969 286.585938 223.238281 305.578125 C 216.058594 324.570312 212.351562 345.417969 213.742188 366.960938 C 215.132812 388.5 221.386719 410.96875 233.660156 433.203125 C 247.328125 457.523438 266.550781 478.140625 288.09375 495.742188 Z M 288.09375 495.742188 " fill-opacity="1" fill-rule="nonzero"/></svg>